<svg width="110" height="110" viewBox="0 0 110 110" fill="none" >
  <g>
    <path  d="M57.061 8.80851C40.3813 8.76554 25.7031 17.2411 17.3141 30.0458C16.9422 30.6152 17.3578 31.3671 18.0469 31.3671H25.7359C26.2609 31.3671 26.7531 31.1415 27.0813 30.7441C27.8469 29.831 28.6672 28.9501 29.5313 28.1122C33.0969 24.621 37.2422 21.871 41.8578 19.9589C46.6266 17.9823 51.7016 16.9726 56.9406 16.9726C62.1797 16.9726 67.2547 17.9716 72.0234 19.9589C76.6391 21.871 80.7844 24.621 84.35 28.1122C87.9156 31.6034 90.7047 35.6747 92.6625 40.1972C94.686 44.8808 95.7031 49.8544 95.7031 54.9999C95.7031 60.1454 94.675 65.1191 92.6625 69.8027C90.7156 74.3251 87.9156 78.3964 84.35 81.8876C80.7844 85.3788 76.6391 88.1288 72.0234 90.0409C67.2509 92.0207 62.1214 93.0363 56.9406 93.0273C51.7016 93.0273 46.6266 92.0175 41.8578 90.0409C37.2513 88.1308 33.0652 85.362 29.5313 81.8876C28.6672 81.039 27.8578 80.1581 27.0813 79.2558C26.7531 78.8583 26.25 78.6327 25.7359 78.6327H18.0469C17.3578 78.6327 16.9313 79.3847 17.3141 79.954C25.6922 92.7265 40.3047 101.191 56.9406 101.191C82.775 101.191 103.753 80.7704 104.016 55.4726C104.278 29.7665 83.2672 8.87297 57.061 8.80851ZM43.2053 67.0312V58.8671H8.86157C8.38032 58.8671 7.98657 58.4804 7.98657 58.0077V51.9921C7.98657 51.5195 8.38032 51.1327 8.86157 51.1327H43.2053V42.9687C43.2053 42.2489 44.0584 41.8407 44.6272 42.2919L60.1475 54.3232C60.2521 54.4036 60.3367 54.5063 60.3948 54.6235C60.453 54.7408 60.4832 54.8695 60.4832 54.9999C60.4832 55.1304 60.453 55.2591 60.3948 55.3763C60.3367 55.4936 60.2521 55.5963 60.1475 55.6767L44.6272 67.7079C44.0584 68.1484 43.2053 67.7509 43.2053 67.0312Z" fill="white"/>
  </g>
</svg>
